<svg id="_x31__x2C_5" height="512" viewBox="0 0 24 24" width="512" xmlns="http://www.w3.org/2000/svg"><path d="m16.25 21.25v-18.5c0-1.105-.895-2-2-2h-10.5c-1.105 0-2 .895-2 2v18.5c0 1.105.895 2 2 2h10.5c1.105 0 2-.895 2-2z" fill="#fff"/><path d="m12.25 2v-1.25h-6.5v1.25c0 .552.448 1 1 1h4.5c.552 0 1-.448 1-1z" fill="#607d8b"/><path d="m16.5 17.736c-3.163 0-5.736-2.573-5.736-5.736s2.573-5.736 5.736-5.736 5.736 2.573 5.736 5.736-2.573 5.736-5.736 5.736z" fill="#ffc107"/><path d="m11.25 4h-4.5c-.965 0-1.75-.785-1.75-1.75 0-.413-.337-.75-.75-.75h-.5c-.414 0-.75-.336-.75-.75s.336-.75.75-.75h.5c1.24 0 2.25 1.01 2.25 2.25 0 .138.112.25.25.25h4.5c.138 0 .25-.112.25-.25 0-1.24 1.01-2.25 2.25-2.25h.5c.414 0 .75.336.75.75s-.336.75-.75.75h-.5c-.413 0-.75.337-.75.75 0 .965-.785 1.75-1.75 1.75z"/><path d="m14.25 24h-10.5c-1.517 0-2.75-1.233-2.75-2.75v-18.5c0-1.517 1.233-2.75 2.75-2.75h10.5c1.517 0 2.75 1.233 2.75 2.75v.5c0 .414-.336.75-.75.75s-.75-.336-.75-.75v-.5c0-.689-.561-1.25-1.25-1.25h-10.5c-.689 0-1.25.561-1.25 1.25v18.5c0 .689.561 1.25 1.25 1.25h10.5c.689 0 1.25-.561 1.25-1.25v-.5c0-.414.336-.75.75-.75s.75.336.75.75v.5c0 1.517-1.233 2.75-2.75 2.75z"/><path d="m16.5 16c-.414 0-.75-.336-.75-.75v-.929c0-.414.336-.75.75-.75s.75.336.75.75v.929c0 .414-.336.75-.75.75z"/><path d="m16.708 15.071h-1.458c-.414 0-.75-.336-.75-.75s.336-.75.75-.75h1.458c.138 0 .292-.168.292-.41s-.154-.411-.292-.411h-.416c-.988 0-1.792-.857-1.792-1.911s.804-1.91 1.792-1.91h1.458c.414 0 .75.336.75.75s-.336.75-.75.75h-1.458c-.138 0-.292.168-.292.41s.154.411.292.411h.416c.988 0 1.792.857 1.792 1.911s-.804 1.91-1.792 1.91z"/><path d="m16.5 10.429c-.414 0-.75-.336-.75-.75v-.929c0-.414.336-.75.75-.75s.75.336.75.75v.929c0 .414-.336.75-.75.75z"/><path d="m16.5 18.5c-3.584 0-6.5-2.916-6.5-6.5s2.916-6.5 6.5-6.5 6.5 2.916 6.5 6.5-2.916 6.5-6.5 6.5zm0-11.5c-2.757 0-5 2.243-5 5s2.243 5 5 5 5-2.243 5-5-2.243-5-5-5z"/></svg>